<svg width="3000" height="3000" viewBox="0 0 3000 3000" fill="none" xmlns="http://www.w3.org/2000/svg">
<path d="M984.33 524.18L1413.17 643.19C1466.2 657.91 1522.08 648.65 1563.09 618.36L1770.24 465.37C1850.79 405.88 1975.87 433.1 2028.05 521.48L2210.46 830.46C2243.02 885.61 2307.01 920.04 2373.51 918.19L2517.14 914.2C2658.57 910.27 2752.15 1058.99 2672.95 1161.8L2189.76 1789.01C2162.87 1823.92 2154.46 1868.71 2166.67 1911.99L2288.96 2345.5C2323.9 2469.38 2192.01 2567.69 2063.79 2513.35L1805.06 2403.71C1704.7 2361.18 1593.14 2412.46 1576.43 2508.8C1555 2632.36 1386.52 2671.3 1289.73 2575.05L1171.26 2457.24C1122.99 2409.24 1049.38 2391.22 985.65 2411.81L938.28 2427.11C798.63 2472.23 658.63 2335.02 718.57 2211.77L832.45 1977.59C863.57 1913.59 840.51 1835.47 776.9 1789.47L367.41 1493.34C256.36 1413.03 283.61 1257.27 414.14 1226.21L785.4 1137.86C879.06 1115.57 926.51 1023.43 888.13 938.39L790.27 721.58C736.53 602.5 850.13 486.94 984.33 524.18Z" fill="#FF3939"/>
<path d="M2371.8 371.01C2359.95 371.01 2350.1 379.49 2347.94 390.7L1990.43 440.54C1987.48 430.43 1978.16 423.03 1967.1 423.03C1953.67 423.03 1942.79 433.92 1942.79 447.34C1942.79 449.73 1943.15 452.04 1943.79 454.22L1576.46 631.05C1572 625.67 1565.27 622.24 1557.74 622.24C1549.85 622.24 1542.85 626.02 1538.41 631.85L1177.27 533.38C1176.47 520.68 1165.94 510.62 1153.03 510.62C1139.6 510.62 1128.72 521.51 1128.72 534.93C1128.72 536.58 1128.89 538.2 1129.2 539.76L764.17 753.39C759.91 749.72 754.38 747.48 748.31 747.48C734.88 747.48 724 758.37 724 771.79C724 785.22 734.89 796.1 748.31 796.1C761.74 796.1 772.62 785.21 772.62 771.79C772.62 770.14 772.45 768.53 772.14 766.96L1137.15 553.33C1141.41 557 1146.94 559.24 1153.01 559.24C1161.38 559.24 1168.76 555.01 1173.13 548.57L1533.41 646.81C1533.55 660.11 1544.37 670.86 1557.71 670.86C1571.14 670.86 1582.02 659.97 1582.02 646.55C1582.02 646.31 1581.99 646.08 1581.98 645.85L1953.08 467.2C1957.04 469.99 1961.86 471.65 1967.07 471.65C1977.24 471.65 1985.94 465.4 1989.57 456.54L2350.1 406.29C2354.11 414.2 2362.3 419.63 2371.78 419.63C2385.21 419.63 2396.09 408.74 2396.09 395.32C2396.11 381.9 2385.23 371.01 2371.8 371.01Z" fill="black"/>
<path d="M2371.8 510.62C2358.37 510.62 2347.49 521.51 2347.49 534.93C2347.49 536.19 2347.62 537.42 2347.8 538.62L1983.55 729.61C1979.22 725.62 1973.45 723.16 1967.09 723.16C1955.5 723.16 1945.83 731.27 1943.39 742.12L1584.33 786.47C1580.43 778.26 1572.08 772.57 1562.39 772.57C1556.38 772.57 1550.88 774.76 1546.64 778.38L1177.22 610.22C1177.29 609.44 1177.34 608.66 1177.34 607.86C1177.34 594.43 1166.45 583.55 1153.03 583.55C1143.34 583.55 1135 589.23 1131.09 597.43L772.46 556.42C771.06 544.32 760.8 534.92 748.32 534.92C734.89 534.92 724.01 545.81 724.01 559.23C724.01 572.66 734.9 583.54 748.32 583.54C757.11 583.54 764.78 578.86 769.06 571.87L1129.29 613.06C1131.68 623.98 1141.39 632.16 1153.03 632.16C1159.99 632.16 1166.25 629.22 1170.68 624.53L1538.57 791.99C1538.25 793.56 1538.08 795.19 1538.08 796.86C1538.08 810.29 1548.97 821.17 1562.39 821.17C1574.02 821.17 1583.73 813 1586.12 802.09L1945.09 757.76C1948.97 766.03 1957.35 771.77 1967.09 771.77C1980.52 771.77 1991.4 760.88 1991.4 747.46C1991.4 746.09 1991.26 744.75 1991.04 743.45L2355.1 552.56C2359.46 556.68 2365.32 559.23 2371.79 559.23C2385.22 559.23 2396.1 548.34 2396.1 534.92C2396.11 521.51 2385.23 510.62 2371.8 510.62Z" fill="black"/>
<path d="M1013.68 1116.68L998.78 1078.51C994.02 1066.31 995.57 1052.56 1002.92 1041.72L1025.92 1007.81C1030.97 1000.36 1031.33 991.25 1026.89 983.43C1022.45 975.6 1014.38 971.23 1005.46 971.77L964.56 974.14C951.51 974.86 938.89 969.18 930.85 958.84L905.71 926.49C901.21 920.71 894.7 917.54 887.68 917.54C886.08 917.54 884.46 917.71 882.82 918.04C874.01 919.85 867.38 926.12 865.11 934.82L854.73 974.45C851.41 987.12 842.08 997.33 829.77 1001.78L791.23 1015.7C782.77 1018.76 777.12 1025.92 776.12 1034.85C775.12 1043.79 779.04 1052.02 786.61 1056.88L821.1 1079C832.12 1086.07 838.95 1098.11 839.38 1111.19L840.71 1152.14C841 1161.13 846.06 1168.72 854.25 1172.43C862.44 1176.15 871.49 1174.96 878.44 1169.26L910.13 1143.3C920.26 1135 933.83 1132.22 946.39 1135.86L985.75 1147.25C994.4 1149.75 1003.17 1147.28 1009.23 1140.64C1015.28 1134.03 1016.95 1125.06 1013.68 1116.68Z" fill="white"/>
<path d="M1039.7 1017.17C1048.26 1004.55 1048.9 988.47 1041.37 975.2C1033.84 961.94 1019.66 954.23 1004.48 955.13L963.58 957.5C956.03 957.94 948.67 954.62 943.99 948.61L918.85 916.26C909.49 904.22 894.41 898.63 879.46 901.7C864.52 904.77 852.84 915.83 848.97 930.59L838.59 970.22C836.66 977.58 831.24 983.51 824.09 986.1L785.55 1000.02C771.21 1005.2 761.24 1017.83 759.53 1032.99C757.83 1048.15 764.74 1062.67 777.58 1070.91L812.07 1093.03C818.47 1097.14 822.44 1104.13 822.69 1111.73L824.02 1152.68C824.51 1167.92 833.45 1181.31 847.33 1187.61C852.64 1190.02 858.26 1191.21 863.83 1191.21C872.82 1191.21 881.69 1188.13 888.97 1182.16L920.66 1156.2C926.54 1151.38 934.41 1149.76 941.73 1151.88L981.09 1163.27C995.74 1167.51 1011.23 1163.15 1021.51 1151.89C1031.79 1140.63 1034.74 1124.81 1029.2 1110.6L1014.3 1072.43C1011.53 1065.34 1012.43 1057.35 1016.7 1051.06L1039.7 1017.17ZM985.73 1147.28L946.37 1135.89C933.8 1132.25 920.24 1135.03 910.11 1143.33L878.42 1169.29C871.46 1174.99 862.42 1176.17 854.23 1172.46C846.04 1168.74 840.98 1161.16 840.69 1152.17L839.36 1111.22C838.94 1098.13 832.11 1086.1 821.08 1079.03L786.59 1056.91C779.02 1052.05 775.1 1043.82 776.1 1034.88C777.1 1025.94 782.75 1018.78 791.21 1015.73L829.75 1001.81C842.07 997.36 851.4 987.14 854.71 974.48L865.09 934.85C867.37 926.15 873.99 919.87 882.8 918.07C884.43 917.74 886.06 917.57 887.66 917.57C894.68 917.57 901.19 920.74 905.69 926.52L930.83 958.87C938.87 969.21 951.5 974.89 964.54 974.17L1005.44 971.8C1014.36 971.25 1022.43 975.63 1026.87 983.46C1031.31 991.28 1030.95 1000.4 1025.9 1007.84L1002.9 1041.75C995.55 1052.58 994 1066.34 998.76 1078.54L1013.66 1116.71C1016.93 1125.09 1015.26 1134.06 1009.19 1140.7C1003.15 1147.31 994.37 1149.78 985.73 1147.28Z" fill="black"/>
<path d="M775.45 1222.1C769.59 1214.42 767.88 1204.35 770.88 1195.17L779.39 1169.14C780.93 1164.45 779.73 1159.58 776.2 1156.13C772.67 1152.68 767.78 1151.59 763.12 1153.23L737.28 1162.31C728.17 1165.52 718.07 1164.03 710.26 1158.34L688.13 1142.2C685.88 1140.56 683.3 1139.72 680.69 1139.72C678.69 1139.72 676.67 1140.21 674.77 1141.21C670.39 1143.5 667.86 1147.81 667.97 1152.75L668.62 1180.13C668.85 1189.79 664.32 1198.94 656.49 1204.6L634.3 1220.66C630.3 1223.55 628.41 1228.19 629.23 1233.06C630.06 1237.93 633.37 1241.68 638.11 1243.09L664.35 1250.93C673.61 1253.69 680.91 1260.84 683.88 1270.03L692.29 1296.09C693.81 1300.79 697.63 1304.02 702.51 1304.74C707.39 1305.47 711.98 1303.46 714.79 1299.4L730.36 1276.87C735.84 1268.93 744.87 1264.2 754.51 1264.2C754.53 1264.2 754.55 1264.2 754.57 1264.2L781.95 1264.25C781.96 1264.25 781.97 1264.25 781.98 1264.25C786.91 1264.25 791.15 1261.62 793.34 1257.2C795.53 1252.78 795.05 1247.79 792.06 1243.87L775.45 1222.1Z" fill="white"/>
<path d="M805.32 1233.76L788.7 1211.99C786.17 1208.67 785.43 1204.32 786.73 1200.35L795.24 1174.32C798.74 1163.62 795.91 1152.09 787.87 1144.22C779.82 1136.35 768.24 1133.79 757.62 1137.51L731.78 1146.59C727.84 1147.98 723.48 1147.33 720.1 1144.87L697.97 1128.73C688.88 1122.1 677.04 1121.22 667.06 1126.44C657.09 1131.66 651.06 1141.89 651.33 1153.14L651.98 1180.52C652.08 1184.69 650.12 1188.65 646.74 1191.09L624.55 1207.15C615.43 1213.75 610.94 1224.74 612.82 1235.83C614.7 1246.92 622.57 1255.82 633.35 1259.04L659.59 1266.88C663.59 1268.08 666.75 1271.16 668.03 1275.14L676.44 1301.2C679.9 1311.91 688.96 1319.58 700.09 1321.22C701.55 1321.44 703 1321.54 704.45 1321.54C714 1321.54 722.96 1316.91 728.51 1308.87L744.08 1286.34C746.45 1282.91 750.35 1280.86 754.52 1280.86C754.53 1280.86 754.54 1280.86 754.55 1280.86L781.93 1280.91C781.95 1280.91 781.97 1280.91 781.99 1280.91C793.22 1280.91 803.29 1274.66 808.28 1264.6C813.29 1254.53 812.15 1242.7 805.32 1233.76ZM793.35 1257.21C791.16 1261.62 786.92 1264.26 781.99 1264.26C781.98 1264.26 781.97 1264.26 781.96 1264.26L754.58 1264.21C754.56 1264.21 754.54 1264.21 754.52 1264.21C744.88 1264.21 735.86 1268.94 730.37 1276.88L714.8 1299.41C711.99 1303.47 707.39 1305.48 702.52 1304.75C697.63 1304.03 693.82 1300.8 692.3 1296.1L683.89 1270.04C680.92 1260.84 673.62 1253.7 664.36 1250.94L638.12 1243.1C633.39 1241.68 630.07 1237.94 629.24 1233.07C628.42 1228.2 630.31 1223.57 634.31 1220.67L656.5 1204.61C664.33 1198.94 668.86 1189.79 668.63 1180.14L667.98 1152.76C667.86 1147.82 670.4 1143.51 674.78 1141.22C676.68 1140.22 678.7 1139.73 680.7 1139.73C683.3 1139.73 685.88 1140.56 688.14 1142.21L710.27 1158.35C718.08 1164.05 728.18 1165.53 737.29 1162.32L763.13 1153.24C767.79 1151.6 772.68 1152.69 776.21 1156.14C779.74 1159.59 780.93 1164.46 779.4 1169.15L770.89 1195.18C767.89 1204.37 769.59 1214.43 775.46 1222.11L792.08 1243.88C795.07 1247.8 795.55 1252.78 793.35 1257.21Z" fill="black"/>
<path d="M2216.15 1925.53C2229.91 1881.97 2246.9 1842.05 2267.58 1804.88C2301.4 1744.13 2340.44 1710 2383.69 1703.35C2384.69 1703.2 2385.69 1703.06 2386.69 1702.94C2400.12 1701.27 2411.04 1702.98 2419.15 1708.03C2435.77 1718.4 2438.93 1742.79 2432.37 1760.38C2424.95 1780.29 2407.68 1795.75 2391.78 1808.23C2372.17 1823.62 2350.93 1837.77 2330.42 1851.45C2304.07 1869.01 2276.81 1887.17 2252.34 1908.36C2246.42 1913.48 2240.8 1918.75 2235.45 1924.13C2188.88 2000.04 2134.33 2108.07 2121.59 2213.71C2118.87 2236.27 2118.53 2255.13 2119.27 2270.22C2133.1 2229.41 2169.64 2167.92 2265.05 2106.12C2294.84 2074.56 2325.92 2047.29 2358.95 2023.66C2415.51 1983.23 2465.41 1969.08 2507.33 1981.57C2508.3 1981.86 2509.26 1982.16 2510.22 1982.48C2523.07 1986.72 2532.21 1992.94 2537.38 2000.97C2547.97 2017.45 2540.38 2040.85 2526.93 2053.94C2511.7 2068.76 2489.48 2075.35 2469.76 2079.82C2445.45 2085.34 2420.2 2089.04 2395.8 2092.63C2364.47 2097.23 2332.06 2101.98 2300.88 2110.65C2291.18 2113.35 2281.81 2116.47 2272.78 2119.93C2272.77 2119.93 2272.77 2119.94 2272.76 2119.94C2277.42 2120.4 2282.82 2121.17 2289.05 2122.41C2315.74 2121.29 2341.36 2122.38 2366.35 2125.78C2413.43 2132.18 2444.88 2148.53 2459.87 2174.39C2460.22 2174.99 2460.56 2175.59 2460.88 2176.2C2465.29 2184.33 2466.92 2191.71 2465.72 2198.12C2463.26 2211.28 2448.52 2219.36 2435.7 2219.56C2421.18 2219.8 2407.05 2212.66 2395.14 2205.64C2380.46 2196.99 2366.17 2187 2352.36 2177.35C2334.62 2164.95 2316.28 2152.13 2296.71 2141.82C2294.84 2140.84 2292.96 2139.89 2291.09 2138.97C2264.81 2133.11 2254.07 2135.75 2253.54 2135.89C2252.16 2136.33 2250.75 2136.34 2249.42 2136.04C2192.95 2177.22 2163.22 2216.48 2147.67 2245.28C2124.92 2287.42 2126.8 2316.75 2126.83 2317.13C2126.84 2317.27 2126.82 2317.41 2126.82 2317.56C2126.83 2317.84 2126.83 2318.12 2126.8 2318.39C2126.78 2318.64 2126.75 2318.89 2126.7 2319.13C2126.66 2319.38 2126.6 2319.63 2126.53 2319.87C2126.46 2320.12 2126.38 2320.36 2126.28 2320.6C2126.19 2320.83 2126.09 2321.06 2125.98 2321.28C2125.87 2321.51 2125.74 2321.72 2125.61 2321.94C2125.47 2322.16 2125.33 2322.37 2125.17 2322.57C2125.02 2322.76 2124.86 2322.95 2124.7 2323.13C2124.52 2323.32 2124.34 2323.5 2124.15 2323.67C2123.96 2323.84 2123.76 2323.99 2123.55 2324.14C2123.35 2324.28 2123.15 2324.42 2122.93 2324.55C2122.69 2324.69 2122.43 2324.82 2122.17 2324.93C2122.04 2324.99 2121.93 2325.07 2121.8 2325.12C2121.72 2325.15 2121.65 2325.15 2121.57 2325.17C2121.07 2325.34 2120.55 2325.47 2120.01 2325.54C2119.9 2325.55 2119.79 2325.59 2119.68 2325.6C2119.66 2325.6 2119.64 2325.61 2119.62 2325.61C2119.04 2325.66 2118.47 2325.62 2117.92 2325.55C2117.85 2325.54 2117.78 2325.55 2117.71 2325.54C2117.71 2325.54 2117.71 2325.54 2117.7 2325.54C2117.7 2325.54 2117.7 2325.54 2117.69 2325.54C2117.09 2325.44 2116.52 2325.25 2115.97 2325.03C2115.85 2324.98 2115.73 2324.93 2115.61 2324.87C2115.07 2324.62 2114.56 2324.32 2114.1 2323.96C2114.04 2323.91 2113.99 2323.85 2113.92 2323.8C2113.5 2323.45 2113.13 2323.06 2112.79 2322.63C2112.71 2322.53 2112.63 2322.44 2112.56 2322.34C2112.21 2321.84 2111.91 2321.31 2111.68 2320.73C2111.66 2320.68 2111.63 2320.65 2111.61 2320.6C2111.03 2319.11 2097.61 2283.24 2105.75 2213.44C2117.93 2108.97 2169.82 2002.67 2216.15 1925.53Z" fill="black"/>
<path d="M2380.23 1768.13C2389.44 1768.13 2396.9 1760.67 2396.9 1751.46C2396.9 1742.25 2389.44 1734.79 2380.23 1734.79C2371.02 1734.79 2363.56 1742.25 2363.56 1751.46C2363.56 1760.67 2371.02 1768.13 2380.23 1768.13Z" fill="white"/>
<path d="M2474.03 2049.84C2483.24 2049.84 2490.7 2042.38 2490.7 2033.17C2490.7 2023.96 2483.24 2016.5 2474.03 2016.5C2464.82 2016.5 2457.36 2023.96 2457.36 2033.17C2457.36 2042.38 2464.82 2049.84 2474.03 2049.84Z" fill="white"/>
<path d="M2426.76 2196.32C2434.43 2196.32 2440.65 2190.1 2440.65 2182.43C2440.65 2174.76 2434.43 2168.54 2426.76 2168.54C2419.09 2168.54 2412.87 2174.76 2412.87 2182.43C2412.87 2190.1 2419.09 2196.32 2426.76 2196.32Z" fill="white"/>
<path d="M1018.86 1814.86C1057.22 1868.73 1089.72 1926.76 1114.63 1988.93C1127.26 2020.46 1138.1 2055.18 1129.07 2087.92C1119.21 2123.68 1086.98 2149.67 1052.19 2162.54C967.2 2193.98 868.95 2157.25 803.42 2094.66C737.89 2032.07 698.39 1947.69 661.15 1865.08C631.83 1800.04 602.58 1733.93 559.9 1676.28C541.61 1651.57 445.03 1561.22 475.77 1526.96C517.55 1478.67 668.43 1493.12 779.25 1575.21C870.52 1642.82 953.26 1722.75 1018.86 1814.86Z" fill="black"/>
<path d="M601.33 1585.46C604.18 1581.85 609.43 1581.24 613.03 1584.1C768.26 1706.96 881.43 1856.73 949.04 1960.73C949.41 1961.3 949.76 1961.86 950.13 1962.42C936.06 1892.11 895.37 1746.74 789.12 1654.34C785.84 1651.49 785.49 1646.51 788.34 1643.23C791.19 1639.95 796.17 1639.6 799.45 1642.45C877.13 1710 920.03 1804.07 942.34 1871.09C962.76 1932.42 970.03 1981.77 971.92 1996.88C1030.01 2091.1 1059.48 2158.46 1059.8 2159.21C1061.63 2163.43 1059.69 2168.34 1055.47 2170.17C1055.43 2170.19 1055.39 2170.2 1055.35 2170.22C1051.16 2171.97 1046.32 2170.03 1044.5 2165.84C1043.87 2164.38 1015.22 2099.36 958.43 2007.21C958.1 2006.78 957.81 2006.32 957.57 2005.82C936.64 1971.93 911.91 1934.41 883.4 1895.06C862.62 1900.29 797.92 1905.85 715.38 1808.51C712.56 1805.19 712.98 1800.23 716.29 1797.41C719.61 1794.59 724.58 1795 727.39 1798.32C796.25 1879.52 850.69 1883.64 873.02 1880.86C803.89 1787.44 713.82 1685.1 602.67 1597.12C599.09 1594.31 598.48 1589.07 601.33 1585.46Z" fill="white"/>
<path d="M982.28 960.04C982.11 895.22 1027.7 816.37 1084.04 783.86L1570.08 503.38C1598.44 487.01 1624.15 485.49 1642.71 496.28L1686.15 521.63C1686.2 521.66 1686.25 521.69 1686.3 521.72L1686.58 521.88V521.89C1704.89 532.54 1716.25 555.15 1716.34 587.35L1715.83 1878.62C1716 1943.35 1670.41 2022.29 1614.07 2054.81L1128.04 2335.29C1099.68 2351.65 1073.99 2353.15 1055.43 2342.35L1055.42 2342.36L1011.54 2316.77C993.22 2306.12 981.86 2283.47 981.77 2251.31L982.28 960.04Z" fill="black"/>
<path d="M1103.48 2332.06L1232.05 2257.85L1531.77 2084.91L1611.15 2039.09C1667.74 2006.43 1702.6 1946.05 1702.61 1880.72L1702.8 578.12C1702.8 542.93 1664.72 520.94 1634.24 538.52L1530.44 598.42C1529.37 599.04 1528.4 599.83 1527.58 600.75L1452.44 685.47C1451.62 686.4 1450.65 687.18 1449.58 687.8L1297.3 775.66C1295.08 776.94 1292.49 777.44 1289.95 777.09L1238.29 769.84C1235.75 769.48 1233.16 769.99 1230.94 771.27L1136.66 825.68C1079.29 858.79 1043.95 919.99 1043.94 986.22L1043.75 2297.55C1043.72 2328.22 1076.92 2347.39 1103.48 2332.06Z" fill="white"/>
<path d="M1440.67 676.07L1339.41 734.52C1333.83 737.74 1329.31 735.83 1329.31 730.25C1329.31 724.67 1333.83 717.54 1339.41 714.32L1440.67 655.87C1446.25 652.65 1450.77 654.56 1450.77 660.14C1450.77 665.72 1446.25 672.85 1440.67 676.07Z" fill="white"/>
<path d="M1006.43 1195.61C1008.41 1197.87 1010.1 1200.53 1011.33 1203.32C1012.73 1206.48 1013.53 1209.8 1013.53 1212.85L1013.52 1320.18C1013.51 1324.2 1012.1 1327.02 1009.84 1328.34L1000.66 1333.66C1002.93 1332.34 1004.34 1329.52 1004.35 1325.5L1004.36 1218.17C1004.37 1215.12 1003.56 1211.8 1002.16 1208.64C1000.93 1205.86 999.24 1203.19 997.26 1200.94C995.59 1199.04 993.71 1197.42 991.71 1196.27L988.22 1194.26C984.71 1192.23 981.52 1192.05 979.2 1193.4L988.37 1188.07C990.68 1186.72 993.88 1186.91 997.39 1188.93L1000.88 1190.94C1002.88 1192.09 1004.77 1193.71 1006.43 1195.61Z" fill="white"/>
<path d="M1004.68 1218.28L1003.9 1325.61C1003.82 1333.71 998.13 1336.89 991.12 1332.77L987.65 1330.73C980.7 1326.65 975.08 1316.83 975.16 1308.73L975.94 1201.4C976.02 1193.39 981.77 1190.17 988.72 1194.24L992.19 1196.28C999.21 1200.4 1004.76 1210.27 1004.68 1218.28Z" fill="black"/>
<path d="M1299.09 733.38C1292.24 737.33 1286.71 746.92 1286.73 754.79C1286.75 762.66 1292.32 765.84 1299.17 761.89C1306.02 757.94 1311.56 748.35 1311.54 740.48C1311.51 732.6 1305.94 729.42 1299.09 733.38Z" fill="white"/>
<path d="M1439.61 2070.74C1440.81 2070.5 1441.94 2070.38 1442.95 2070.38C1444.92 2070.38 1446.45 2070.83 1447.21 2071.68C1448.34 2072.95 1448.34 2075.83 1447.22 2079.18C1443.8 2089.45 1431.45 2100.34 1420.78 2102.49C1417.25 2103.2 1414.34 2102.84 1413.2 2101.54C1412.08 2100.27 1412.07 2097.39 1413.19 2094.04C1416.66 2083.61 1428.77 2072.93 1439.61 2070.74Z" fill="white"/>
<path d="M1401.4 2111.98C1405.22 2116.3 1410.92 2118.59 1417.54 2118.59C1419.58 2118.59 1421.71 2118.37 1423.9 2117.93C1440.15 2114.65 1456.96 2099.82 1462.17 2084.16C1465.14 2075.24 1463.99 2066.89 1459.01 2061.25C1454.01 2055.59 1445.8 2053.42 1436.51 2055.3C1420.27 2058.58 1403.47 2073.41 1398.25 2089.07C1395.27 2098 1396.42 2106.35 1401.4 2111.98ZM1413.18 2094.05C1416.66 2083.6 1428.76 2072.93 1439.61 2070.74C1440.81 2070.5 1441.94 2070.38 1442.95 2070.38C1444.92 2070.38 1446.45 2070.83 1447.21 2071.68C1448.34 2072.95 1448.34 2075.83 1447.22 2079.18C1443.8 2089.45 1431.45 2100.34 1420.78 2102.49C1417.25 2103.2 1414.34 2102.84 1413.2 2101.54C1412.07 2100.28 1412.06 2097.4 1413.18 2094.05Z" fill="black"/>
<path d="M1330.52 1347.06L1051.88 1186.19V1039.43L1330.52 1323.99V1347.06Z" fill="white"/>
<path d="M1598.92 707.45L1546.47 737.74L1830.07 1027.37L1882.52 997.08L1756.25 868.13L1598.92 707.45Z" fill="white"/>
<path d="M1836.1 1064.75L1888.48 1034.5V1012.89L1836.1 1043.13V1064.75Z" fill="white"/>
<path d="M1106.38 991.83L1282.62 1171.81L1389.97 1281.46L1442.43 1251.17L1169.29 972.23L1158.83 961.54L1106.38 991.83Z" fill="white"/>
<path d="M1396.09 1318.82L1448.48 1288.57V1266.93L1396.09 1297.17V1318.82Z" fill="white"/>
<path d="M1772.5 1060.61L1488.9 770.98L1436.45 801.26L1720.05 1090.89L1772.5 1060.61Z" fill="white"/>
<path d="M1726.02 1128.31L1778.4 1098.06V1076.44L1726.02 1106.68V1128.31Z" fill="white"/>
<path d="M1985.5 937.63L1701.91 648L1656.49 674.22L1842.36 864.03L1940.09 963.84L1985.5 937.63Z" fill="white"/>
<path d="M1946.18 979.57V1001.18L1990.23 975.75V954.14L1946.18 979.57Z" fill="white"/>
<path d="M1662.48 1124.13L1378.88 834.5L1326.42 864.78L1369.66 908.94L1610.02 1154.41L1662.48 1124.13Z" fill="white"/>
<path d="M1616.1 1191.78L1668.48 1161.53V1139.91L1616.1 1170.15V1191.78Z" fill="white"/>
<path d="M1552.45 1187.65L1268.85 898.02L1216.4 928.3L1500 1217.93L1552.45 1187.65Z" fill="white"/>
<path d="M1506.02 1255.34L1558.4 1225.1V1203.46L1506.02 1233.7V1255.34Z" fill="white"/>
<path d="M2002.73 932.49C2002.62 932.42 2002.49 932.4 2002.37 932.34L1704.61 628.25L1041.92 1010.85C1041.4 1010.95 1040.89 1011.09 1040.39 1011.29C1037.25 1012.57 1035.21 1015.62 1035.21 1019.01V1191C1035.21 1193.98 1036.8 1196.73 1039.38 1198.22L1334.69 1368.71C1335.98 1369.45 1337.42 1369.83 1338.86 1369.83C1340.3 1369.83 1341.74 1369.46 1343.03 1368.71L2002.74 987.78C2005.32 986.29 2006.91 983.54 2006.91 980.56V939.71C2006.9 936.73 2005.31 933.98 2002.73 932.49ZM1946.18 1001.18V979.57L1990.23 954.14V975.75L1946.18 1001.18ZM1882.52 997.08L1830.07 1027.36L1546.47 737.73L1598.92 707.45L1756.25 868.13L1882.52 997.08ZM1778.4 1098.06L1726.02 1128.31V1106.68L1778.4 1076.44V1098.06ZM1169.29 972.23L1442.43 1251.17L1389.98 1281.45L1282.62 1171.81L1106.38 991.82L1158.83 961.54L1169.29 972.23ZM1330.52 1347.06L1051.88 1186.19V1039.43L1330.52 1323.99V1347.06ZM1448.48 1288.57L1396.1 1318.82V1297.17L1448.48 1266.93V1288.57ZM1216.4 928.3L1268.85 898.02L1552.45 1187.65L1500 1217.93L1216.4 928.3ZM1558.4 1225.1L1506.02 1255.35V1233.71L1558.4 1203.47V1225.1ZM1369.66 908.94L1326.42 864.78L1378.87 834.5L1662.47 1124.13L1610.02 1154.41L1369.66 908.94ZM1668.48 1161.53L1616.1 1191.78V1170.15L1668.48 1139.91V1161.53ZM1436.45 801.26L1488.9 770.98L1772.5 1060.61L1720.05 1090.89L1436.45 801.26ZM1888.48 1034.5L1836.1 1064.75V1043.13L1888.48 1012.89V1034.5ZM1842.36 864.03L1656.49 674.21L1701.9 647.99L1985.5 937.62L1940.09 963.84L1842.36 864.03Z" fill="black"/>
<path d="M2282.99 1034.81L1929.85 1127.2L1968.11 1273.44L2321.25 1181.05L2282.99 1034.81Z" fill="white"/>
<path d="M2021.19 1276.87L2286.02 1207.59C2286.03 1207.59 2286.04 1207.58 2286.06 1207.58L2341.69 1193.03L2295 1014.53L1909.59 1115.35L1956.28 1293.85L2021.19 1276.87C2021.18 1276.88 2021.18 1276.88 2021.19 1276.87ZM1998.39 1227.76C1981.91 1220.58 1964.53 1225.83 1956.55 1229.07L1943.39 1178.77C1961.63 1173.44 1973.8 1164.04 1979.58 1150.8C1985.48 1137.28 1983 1123.17 1980.14 1114.13L2227.67 1049.38C2233.1 1066.51 2242.28 1078 2255.02 1083.56C2261.07 1086.2 2267.25 1087.16 2273.04 1087.16C2282.23 1087.16 2290.42 1084.74 2295.6 1082.75L2307.88 1129.69C2290.56 1135.1 2278.95 1144.32 2273.35 1157.16C2267.46 1170.68 2269.93 1184.79 2272.79 1193.83L2024.66 1258.74C2019.14 1243.38 2010.33 1232.97 1998.39 1227.76ZM2288.96 1189.6C2286.84 1183.27 2284.66 1172.94 2288.64 1163.82C2292.14 1155.78 2300.05 1149.76 2312.12 1145.85L2321.35 1181.13L2288.96 1189.6ZM2291.35 1066.49C2286.31 1068.65 2273.05 1073.28 2261.61 1068.24C2253.69 1064.75 2247.73 1056.98 2243.82 1045.15L2283.08 1034.88L2291.35 1066.49ZM1963.98 1118.36C1966.1 1124.69 1968.29 1135.02 1964.3 1144.14C1960.64 1152.53 1952.15 1158.71 1939.16 1162.61L1929.91 1127.27L1963.98 1118.36ZM1960.82 1245.38C1964.49 1243.67 1979.26 1237.56 1991.81 1243.08C1998.99 1246.24 2004.54 1252.96 2008.43 1262.99L1968.19 1273.52L1960.82 1245.38Z" fill="black"/>
<path d="M2134.97 1208.56C2126.01 1208.56 2116.99 1205.17 2108.86 1198.63C2098.73 1190.48 2091.13 1178.24 2087.45 1164.18C2079.62 1134.25 2092.22 1104.94 2115.53 1098.83C2138.85 1092.72 2164.19 1112.12 2172.02 1142.06C2175.7 1156.12 2175.06 1170.51 2170.22 1182.58C2165.03 1195.51 2155.7 1204.33 2143.93 1207.41C2140.98 1208.18 2137.98 1208.56 2134.97 1208.56ZM2124.34 1114.38C2122.79 1114.38 2121.26 1114.57 2119.75 1114.96C2105.57 1118.67 2098.16 1139.28 2103.57 1159.96C2106.35 1170.59 2111.94 1179.71 2119.31 1185.64C2125.95 1190.98 2133.2 1192.98 2139.71 1191.28C2146.23 1189.57 2151.57 1184.28 2154.74 1176.37C2158.26 1167.59 2158.67 1156.91 2155.89 1146.28C2151.06 1127.8 2137.33 1114.38 2124.34 1114.38Z" fill="black"/>
<path d="M2017.16 1190.91C2013.46 1190.91 2010.08 1188.43 2009.1 1184.68C2007.94 1180.23 2010.6 1175.67 2015.05 1174.51L2061.25 1162.43C2065.7 1161.28 2070.26 1163.93 2071.42 1168.38C2072.58 1172.83 2069.92 1177.39 2065.47 1178.55L2019.27 1190.63C2018.57 1190.82 2017.86 1190.91 2017.16 1190.91Z" fill="black"/>
<path d="M2193.16 1144.87C2189.46 1144.87 2186.08 1142.39 2185.1 1138.64C2183.94 1134.19 2186.6 1129.63 2191.05 1128.47L2237.25 1116.39C2241.7 1115.23 2246.26 1117.89 2247.42 1122.34C2248.58 1126.79 2245.92 1131.35 2241.47 1132.51L2195.27 1144.59C2194.57 1144.78 2193.86 1144.87 2193.16 1144.87Z" fill="black"/>
<path d="M1932.98 1459.57L2158.02 1650.7C2101.95 1716.71 2019.59 1754.82 1932.98 1754.82C1771.01 1754.82 1637.73 1621.54 1637.73 1459.57C1637.73 1297.6 1771.01 1164.32 1932.98 1164.32C1955.08 1164.32 1977.1 1166.8 1998.65 1171.71L1932.98 1459.57Z" fill="white"/>
<path d="M1932.98 1763.15C1852.42 1763.15 1776.33 1731.43 1718.72 1673.82C1661.12 1616.22 1629.39 1540.13 1629.39 1459.56C1629.39 1379 1661.11 1302.91 1718.72 1245.3C1776.33 1187.69 1852.41 1155.97 1932.98 1155.97C1955.67 1155.97 1978.38 1158.53 2000.5 1163.57C2004.99 1164.59 2007.79 1169.06 2006.77 1173.55L1942.23 1456.47L2163.41 1644.33C2166.92 1647.31 2167.35 1652.57 2164.36 1656.08C2106.59 1724.13 2022.25 1763.15 1932.98 1763.15ZM1932.98 1172.65C1856.87 1172.65 1784.97 1202.64 1730.51 1257.1C1676.06 1311.55 1646.06 1383.46 1646.06 1459.57C1646.06 1535.68 1676.05 1607.58 1730.51 1662.04C1784.97 1716.49 1856.87 1746.49 1932.98 1746.49C2014.56 1746.49 2091.79 1712.01 2146.18 1651.58L1927.58 1465.92C1925.21 1463.91 1924.16 1460.75 1924.85 1457.72L1988.64 1178.11C1970.34 1174.49 1951.65 1172.65 1932.98 1172.65Z" fill="black"/>
<path d="M2068.03 1181.4L1968.24 1435.44L2239.4 1404.4C2232.39 1355.7 2212.95 1309.55 2182.91 1270.46C2152.87 1231.38 2113.28 1200.71 2068.03 1181.4Z" fill="white"/>
<path d="M2257.03 1410.77C2250.76 1356.03 2229.71 1304 2196.13 1260.31C2162.55 1216.62 2117.7 1182.88 2066.41 1162.73C2062.12 1161.04 2057.29 1163.16 2055.61 1167.44L1947.66 1442.25C1946.59 1444.97 1947.03 1448.06 1948.81 1450.37C1950.4 1452.43 1952.85 1453.63 1955.42 1453.63C1955.73 1453.63 1956.05 1453.61 1956.37 1453.58L2249.71 1420.01C2251.91 1419.76 2253.91 1418.65 2255.29 1416.91C2256.65 1415.17 2257.28 1412.97 2257.03 1410.77ZM1968.24 1435.44L2068.03 1181.4C2113.28 1200.71 2152.87 1231.37 2182.91 1270.46C2212.95 1309.55 2232.39 1355.69 2239.4 1404.4L1968.24 1435.44Z" fill="black"/>
<path d="M2255.57 1458.25L1995.81 1470.67L2216.62 1608.05C2242.16 1564.22 2255.62 1514.47 2255.62 1463.62C2255.62 1461.83 2255.6 1460.04 2255.57 1458.25Z" fill="white"/>
<path d="M2271.94 1449.12C2271.72 1444.52 2267.9 1440.95 2263.22 1441.2L1968.31 1455.3C1964.67 1455.47 1961.56 1458 1960.64 1461.53C1959.72 1465.06 1961.21 1468.78 1964.3 1470.7L2214.99 1626.67C2216.36 1627.52 2217.88 1627.93 2219.38 1627.93C2222.16 1627.93 2224.88 1626.54 2226.46 1624C2256.44 1575.83 2272.28 1520.37 2272.28 1463.63C2272.29 1458.79 2272.17 1453.91 2271.94 1449.12ZM1995.81 1470.67L2255.57 1458.25C2255.61 1460.04 2255.62 1461.83 2255.62 1463.62C2255.62 1514.46 2242.16 1564.22 2216.62 1608.05L1995.81 1470.67Z" fill="black"/>
<path d="M1786.81 1596.47C1784.44 1596.62 1782.07 1595.52 1780.45 1593.72C1778.83 1591.92 1778.07 1589.51 1778.36 1587.11L1785.27 1531.31L1257.66 1837.5L1349.7 1828.25C1349.98 1828.22 1350.26 1828.21 1350.53 1828.21C1352.88 1828.21 1355.14 1829.21 1356.73 1830.97C1358.51 1832.94 1359.23 1835.65 1358.69 1838.25L1344.81 1904.59L1881.41 1594.44L1786.81 1596.47Z" fill="white"/>
<path d="M1921.7 1583.18C1920.69 1579.57 1917.41 1577.09 1913.68 1577.09C1913.62 1577.09 1913.56 1577.09 1913.5 1577.09L1796.09 1579.6L1803.88 1516.71C1804.27 1513.57 1802.84 1510.48 1800.2 1508.73C1797.56 1506.99 1794.16 1506.89 1791.42 1508.47L1215.93 1842.44C1212.54 1844.41 1210.98 1848.48 1212.18 1852.21C1213.39 1855.95 1217.07 1858.31 1220.94 1857.94L1340.03 1845.97L1324.66 1919.43C1323.99 1922.65 1325.27 1925.96 1327.93 1927.89C1329.38 1928.94 1331.1 1929.47 1332.82 1929.47C1334.26 1929.47 1335.7 1929.1 1336.99 1928.35L1917.84 1592.63C1921.14 1590.74 1922.72 1586.84 1921.7 1583.18ZM1358.68 1838.25C1359.22 1835.65 1358.5 1832.95 1356.72 1830.97C1355.13 1829.2 1352.88 1828.21 1350.52 1828.21C1350.24 1828.21 1349.96 1828.22 1349.69 1828.25L1257.65 1837.5L1785.26 1531.31L1778.35 1587.11C1778.05 1589.51 1778.81 1591.93 1780.44 1593.72C1782.07 1595.51 1784.43 1596.62 1786.8 1596.47L1881.4 1594.45L1344.8 1904.6L1358.68 1838.25Z" fill="black"/>
<path d="M1324.67 1919.44L1340.02 1846.11L1228.03 1857.25L1192.15 2493.62L1345.33 2581.47L1324.5 1921.41C1324.47 1920.75 1324.53 1920.09 1324.67 1919.44Z" fill="white"/>
<path d="M1341.18 1921.88L1358.66 1838.39C1359.2 1835.79 1358.48 1833.09 1356.7 1831.11C1354.93 1829.13 1352.32 1828.13 1349.67 1828.39L1219.27 1841.36C1215.18 1841.77 1212.01 1845.09 1211.77 1849.18L1175.2 2497.81C1175.02 2500.96 1176.64 2503.94 1179.37 2505.51L1349.96 2603.35C1351.24 2604.09 1352.68 2604.45 1354.11 2604.45C1355.6 2604.45 1357.08 2604.05 1358.4 2603.26C1360.99 2601.7 1362.53 2598.87 1362.44 2595.85L1341.18 1921.88ZM1192.15 2493.62L1228.03 1857.25L1340.02 1846.11L1324.67 1919.44C1324.53 1920.09 1324.48 1920.75 1324.5 1921.41L1345.33 2581.47L1192.15 2493.62Z" fill="black"/>
<path d="M1183.57 2498.31L1310.5 2448.6L1332.82 1921.14L1354.13 2596.13L1183.57 2498.31Z" fill="black"/>
<path d="M1778.96 1589.2L1779.44 1656.15L1890.9 1591.8L1778.96 1589.2Z" fill="black"/>
<path d="M1341.31 1925.87L1362.03 2582L1933.55 2253.94L1905.93 1599.53L1341.31 1925.87Z" fill="white"/>
<path d="M1922 1585.07C1921.88 1582.16 1920.24 1579.52 1917.69 1578.12C1915.13 1576.72 1912.03 1576.75 1909.51 1578.21L1328.66 1913.93C1326 1915.47 1324.4 1918.34 1324.5 1921.41L1345.81 2596.4C1345.9 2599.32 1347.52 2601.99 1350.08 2603.41C1351.34 2604.12 1352.74 2604.47 1354.14 2604.47C1355.57 2604.47 1357 2604.1 1358.29 2603.36L1946.25 2265.87C1948.95 2264.32 1950.56 2261.4 1950.43 2258.29L1922 1585.07ZM1362.03 2582L1341.31 1925.87L1905.93 1599.53L1933.56 2253.94L1362.03 2582Z" fill="black"/>
<path d="M1731.87 1752.94C1733.55 1760.14 1730.27 1769.06 1724.56 1772.88C1718.85 1776.69 1712.85 1773.95 1711.18 1766.75C1709.5 1759.55 1712.77 1750.63 1718.49 1746.81C1724.21 1743 1730.2 1745.74 1731.87 1752.94Z" fill="black"/>
<path d="M1562.08 1856.44C1563.76 1863.64 1560.48 1872.56 1554.77 1876.37C1549.06 1880.18 1543.06 1877.44 1541.39 1870.24C1539.71 1863.04 1542.98 1854.12 1548.7 1850.3C1554.42 1846.5 1560.41 1849.24 1562.08 1856.44Z" fill="black"/>
<path d="M1651.78 1999.12C1642.36 1999.12 1633.1 1996.81 1624.08 1992.2C1572.1 1965.62 1545.98 1869.71 1544.9 1865.65C1543.71 1861.2 1546.35 1856.64 1550.8 1855.45C1555.25 1854.27 1559.81 1856.9 1561 1861.35C1561.25 1862.28 1586.29 1954.17 1631.68 1977.37C1643.64 1983.48 1655.7 1984.08 1668.52 1979.18C1699.1 1967.52 1720.05 1948.01 1730.8 1921.21C1757.11 1855.61 1715.45 1766.48 1715.02 1765.59C1713.05 1761.43 1714.81 1756.46 1718.97 1754.49C1723.12 1752.53 1728.09 1754.28 1730.07 1758.43C1731.93 1762.34 1775.3 1854.94 1746.29 1927.36C1733.74 1958.68 1709.58 1981.35 1674.46 1994.75C1666.83 1997.67 1659.25 1999.12 1651.78 1999.12Z" fill="black"/>
<path d="M1140.98 1555.83C1137.83 1555.83 1134.81 1554.03 1133.41 1550.99C1131.48 1546.81 1133.3 1541.86 1137.48 1539.93L1415.21 1411.75C1419.38 1409.81 1424.34 1411.64 1426.27 1415.82C1428.2 1420 1426.38 1424.95 1422.2 1426.88L1144.47 1555.06C1143.33 1555.58 1142.15 1555.83 1140.98 1555.83Z" fill="black"/>
<path d="M1400.07 1576.08C1398.14 1571.9 1393.18 1570.07 1389.01 1572.01L1137.47 1688.1C1133.29 1690.03 1131.47 1694.98 1133.4 1699.16C1134.81 1702.21 1137.82 1704 1140.97 1704C1142.14 1704 1143.33 1703.75 1144.46 1703.23L1396 1587.14C1400.18 1585.21 1402 1580.26 1400.07 1576.08Z" fill="black"/>
<path d="M1333.11 1537.7C1331.18 1533.52 1326.22 1531.69 1322.05 1533.63L1137.48 1618.82C1133.3 1620.75 1131.48 1625.7 1133.41 1629.88C1134.82 1632.93 1137.83 1634.72 1140.98 1634.72C1142.15 1634.72 1143.34 1634.47 1144.47 1633.95L1329.04 1548.76C1333.21 1546.83 1335.04 1541.88 1333.11 1537.7Z" fill="black"/>
<path d="M2474.69 1037.66C2458.62 1037.66 2448.1 1031.01 2441.27 1023.22C2426.35 1006.17 2422.21 974.41 2429.37 934.58C2411.97 932.01 2392.09 929.53 2369.39 927.22C2281.22 918.24 2193.78 916.2 2192.91 916.18C2188.56 916.08 2185.12 912.48 2185.21 908.13C2185.3 903.78 2188.98 900.44 2193.26 900.43C2194.14 900.45 2282.12 902.5 2370.9 911.54C2394.13 913.91 2414.58 916.44 2432.62 919.09C2432.79 918.4 2432.96 917.7 2433.13 917C2444.35 871.7 2467.17 825.26 2494.17 792.78C2499.61 786.23 2505.51 780.77 2511.79 776.41C2510.31 774.37 2508.85 772.3 2507.43 770.21C2483.24 734.83 2468.87 696.48 2468.02 665.02C2467.27 637.24 2477.36 616.18 2496.44 605.71C2500.25 603.62 2505.04 605.01 2507.13 608.83C2509.22 612.64 2507.83 617.43 2504.01 619.52C2486.53 629.11 2483.35 649.33 2483.76 664.59C2484.59 695.16 2499.97 733.87 2525.67 768.78C2551 758.25 2580.7 763.16 2610.22 783.86C2639.99 804.73 2665.8 840.56 2655.25 858.58C2648.45 870.2 2631.88 869.79 2606.01 857.36C2574.9 842.42 2545.47 818.52 2521.41 788.94C2515.13 793.21 2510.1 798.26 2506.28 802.85C2478.91 835.78 2458.14 880.8 2448.11 921.51C2544.78 937.37 2562.59 956.93 2566.56 971.31C2572.46 992.69 2546.34 1009.09 2537.75 1014.48C2510.58 1031.55 2490.09 1037.66 2474.69 1037.66ZM2444.79 936.98C2438.74 970.09 2440.69 998.64 2453.12 1012.85C2470.02 1032.16 2503.93 1017.14 2529.39 1001.15C2545.37 991.11 2553.19 982.01 2551.39 975.5C2549.77 969.64 2536.86 952.14 2444.79 936.98ZM2535.84 781.73C2556.72 806.72 2582.97 828.82 2612.84 843.17C2636.01 854.29 2641.64 850.67 2641.67 850.63C2644.82 845.24 2630.69 817.44 2601.19 796.76C2573.96 777.66 2552.23 776.27 2535.84 781.73Z" fill="black"/>
<path d="M850.93 2431.43C850.43 2431.43 849.91 2431.38 849.4 2431.28C845.13 2430.44 842.36 2426.29 843.2 2422.03C856.85 2352.91 811.25 2269.72 761.17 2232.28C758.88 2230.57 756.25 2228.71 753.35 2226.86C740.67 2308.59 719.01 2377.28 697.68 2399.41C688.78 2408.64 681.09 2408.35 676.19 2406.47C667.47 2403.13 655.63 2391.24 653.37 2326.77C651.76 2280.78 657.28 2222.06 692.78 2203.49C706.59 2196.27 723.04 2196.14 740.76 2202.79C755.45 2089.66 753.18 1947.84 706.57 1838.5C682.44 1781.89 657.44 1753.24 633.99 1755.47C573.66 1761.39 520.2 1954.18 504.7 2027.97C503.8 2032.23 499.62 2034.95 495.37 2034.06C491.11 2033.16 488.39 2028.99 489.28 2024.73C489.42 2024.05 503.89 1955.71 527.93 1887.31C561.08 1792.99 596.24 1743.36 632.45 1739.81C664.21 1736.67 693.19 1766.96 721.06 1832.34C772.7 1953.48 767.59 2099.18 759.94 2175.25C758.76 2186.96 757.38 2198.55 755.82 2209.94C760.69 2212.71 765.62 2215.96 770.59 2219.67C824.49 2259.96 873.48 2349.95 858.64 2425.08C857.9 2428.84 854.61 2431.43 850.93 2431.43ZM716.1 2213.67C710.62 2213.67 705.2 2214.78 700.08 2217.46C678.05 2228.98 667.05 2267.61 669.11 2326.23C671.23 2386.66 681.73 2391.74 681.84 2391.78C681.81 2391.77 685.31 2391.31 691.7 2381.58C708.77 2355.58 727.36 2294.71 738.54 2218.89C731.41 2215.82 723.71 2213.67 716.1 2213.67Z" fill="black"/>
<path d="M1881.78 2014.42L1895.76 2526.44L2151.44 2379.65L2125.49 1876.55L1881.78 2014.42Z" fill="white"/>
<path d="M2141.44 1862.23C2141.29 1859.35 2139.66 1856.75 2137.13 1855.35C2134.6 1853.96 2131.53 1853.98 2129.01 1855.4L1869.21 2002.38C1866.53 2003.9 1864.9 2006.78 1864.98 2009.86L1879.47 2540.84C1879.55 2543.77 1881.17 2546.44 1883.72 2547.88C1884.99 2548.59 1886.39 2548.95 1887.8 2548.95C1889.23 2548.95 1890.66 2548.58 1891.95 2547.84L2164.17 2391.55C2166.89 2389.99 2168.5 2387.03 2168.34 2383.89L2141.44 1862.23ZM1895.76 2526.44L1881.78 2014.42L2125.48 1876.55L2151.43 2379.65L1895.76 2526.44Z" fill="black"/>
<path d="M1865.15 2007.97L1876.14 1954.12L1790.41 1963.07L1759.44 2457.88L1879.13 2526.12L1864.98 2009.86C1864.97 2009.23 1865.02 2008.59 1865.15 2007.97Z" fill="white"/>
<path d="M1881.68 2010.37L1894.75 1946.32C1895.28 1943.72 1894.54 1941.02 1892.76 1939.06C1890.98 1937.1 1888.38 1936.08 1885.72 1936.37L1781.67 1947.23C1777.62 1947.65 1774.47 1950.94 1774.22 1955L1742.49 2462.03C1742.29 2465.2 1743.92 2468.22 1746.68 2469.79L1883.75 2547.93C1885.03 2548.66 1886.45 2549.02 1887.88 2549.02C1889.36 2549.02 1890.85 2548.62 1892.16 2547.83C1894.74 2546.28 1896.29 2543.46 1896.21 2540.45L1881.68 2010.37ZM1759.44 2457.89L1790.41 1963.08L1876.14 1954.13L1865.15 2007.98C1865.02 2008.6 1864.97 2009.24 1864.98 2009.87L1879.13 2526.13L1759.44 2457.89Z" fill="black"/>
<path d="M1750.83 2462.54L1887.81 2540.62L1875.98 2108.41L1852.27 2424.35L1750.83 2462.54Z" fill="black"/>
<path d="M2026.81 1867.56C2025.24 1865.77 2024.51 1863.4 2024.8 1861.04L2029.49 1822.87L1820.68 1943.16L1885.73 1936.37C1886.02 1936.34 1886.31 1936.32 1886.6 1936.32C1888.94 1936.32 1891.18 1937.3 1892.77 1939.05C1894.55 1941.02 1895.29 1943.72 1894.76 1946.32L1885.14 1993.36L2101.78 1870.8L2033.01 1870.38C2030.64 1870.38 2028.38 1869.35 2026.81 1867.56Z" fill="white"/>
<path d="M2141.18 1860.56C2140.23 1856.91 2136.94 1854.35 2133.16 1854.32L2042.48 1853.77L2048.06 1808.32C2048.45 1805.18 2047.02 1802.1 2044.39 1800.36C2041.76 1798.62 2038.36 1798.51 2035.63 1800.09L1778.37 1948.29C1774.96 1950.25 1773.39 1954.34 1774.6 1958.08C1775.81 1961.82 1779.47 1964.24 1783.39 1963.8L1876.15 1954.12L1865.14 2007.96C1864.49 2011.16 1865.76 2014.45 1868.4 2016.37C1869.85 2017.43 1871.57 2017.96 1873.3 2017.96C1874.71 2017.96 1876.13 2017.6 1877.4 2016.88L2137.2 1869.9C2140.5 1868.05 2142.13 1864.22 2141.18 1860.56ZM1885.15 1993.37L1894.77 1946.33C1895.3 1943.73 1894.56 1941.03 1892.78 1939.06C1891.19 1937.31 1888.94 1936.33 1886.61 1936.33C1886.32 1936.33 1886.03 1936.34 1885.74 1936.38L1820.69 1943.17L2029.5 1822.88L2024.81 1861.05C2024.52 1863.41 2025.25 1865.78 2026.82 1867.57C2028.39 1869.35 2030.65 1870.39 2033.03 1870.4L2101.8 1870.82L1885.15 1993.37Z" fill="black"/>
<path d="M2028.43 1866.14V1917L2117.68 1866.68L2028.43 1866.14Z" fill="black"/>
<path d="M2087.52 1937.81C2087.74 1936.08 2087.65 1934.33 2087.11 1932.73C2085.4 1927.71 2080.28 1925.98 2075.67 1928.89C2071.06 1931.79 2068.71 1938.21 2070.42 1943.24C2070.95 1944.79 2071.82 1945.98 2072.88 1946.86C2078.34 1964.74 2092.3 2018.49 2075.28 2053.94C2068.54 2067.97 2057.91 2077.31 2042.79 2082.49C2024.77 2088.66 2008.44 2087.9 1994.26 2080.24C1966.07 2065.02 1953.05 2027.05 1950.15 2017.45C1950.44 2015.61 1950.36 2013.74 1949.78 2012.03C1948.07 2007.01 1942.95 2005.29 1938.34 2008.19C1933.73 2011.09 1931.38 2017.51 1933.09 2022.54C1933.58 2023.99 1934.38 2025.13 1935.35 2026C1940.36 2041.17 1955.29 2078.1 1986.27 2094.88C1996.68 2100.52 2007.85 2103.34 2019.67 2103.34C2028.8 2103.34 2038.33 2101.66 2048.19 2098.28C2067.51 2091.67 2081.69 2079.17 2090.34 2061.14C2111.68 2016.57 2092.2 1951.89 2087.52 1937.81Z" fill="black"/>
</svg>
